{"accessors":[{"bufferView":0,"componentType":5126,"count":3828,"max":[1.2000000476837158,6.975000381469727,1.2000000476837158],"min":[-1.2000000476837158,-3.0,-1.2000000476837158],"normalized":false,"type":"VEC3"},{"bufferView":1,"componentType":5126,"count":3828,"max":[1.0,0.4115508496761322,0.9987968802452087,1.0],"min":[-1.0,-1.0,-1.0,-1.0],"normalized":false,"type":"VEC4"},{"bufferView":2,"componentType":5126,"count":3828,"max":[1.0,1.0,1.0],"min":[-1.0,-1.0,-1.0],"normalized":false,"type":"VEC3"},{"bufferView":3,"componentType":5126,"count":3828,"max":[1.0,1.0],"min":[0.0,0.0],"normalized":false,"type":"VEC2"},{"bufferView":4,"componentType":5123,"count":3828,"max":[3827],"min":[0],"normalized":false,"type":"SCALAR"}],"asset":{"generator":"Godot Engine v4.6.stable.mono.official@89cea143987d564363e15d207438530651d943ac","version":"2.0"},"bufferViews":[{"buffer":0,"byteLength":45936,"byteStride":12,"target":34962},{"buffer":0,"byteLength":61248,"byteOffset":45936,"byteStride":16,"target":34962},{"buffer":0,"byteLength":45936,"byteOffset":107184,"byteStride":12,"target":34962},{"buffer":0,"byteLength":30624,"byteOffset":153120,"byteStride":8,"target":34962},{"buffer":0,"byteLength":7656,"byteOffset":183744,"target":34963}],"buffers":[{"byteLength":191400,"uri":"csg_stump0.bin"}],"extensionsUsed":["GODOT_single_root"],"materials":[{}],"meshes":[{"name":"CSGStump2","primitives":[{"attributes":{"NORMAL":2,"POSITION":0,"TANGENT":1,"TEXCOORD_0":3},"indices":4,"material":0,"mode":4}]}],"nodes":[{"children":[1,2,3],"mesh":0,"name":"CSGStump2"},{"name":"CSGStumpMinus","translation":[0.0,-0.5,0.0]},{"name":"CSGTrunkTop","translation":[0.0,2.549999952316284,0.0]},{"name":"CSGTopCone","rotation":[1.0,0.0,0.0,-4.371138828673793e-08],"translation":[0.0,-2.399853467941284,2.1983754816545797e-09]}],"scene":0,"scenes":[{"nodes":[0]}]}